G75*
G70*
%OFA0B0*%
%FSLAX24Y24*%
%IPPOS*%
%LPD*%
%AMOC8*
5,1,8,0,0,1.08239X$1,22.5*
%
%ADD10C,0.0000*%
%ADD11C,0.0560*%
%ADD12C,0.1310*%
%ADD13C,0.1266*%
%ADD14C,0.0660*%
%ADD15C,0.0100*%
%ADD16C,0.0357*%
D10*
X001030Y000655D02*
X001030Y007655D01*
X011905Y007655D01*
X011905Y000655D01*
X001030Y000655D01*
X010477Y003269D02*
X010479Y003298D01*
X010485Y003326D01*
X010494Y003354D01*
X010507Y003380D01*
X010524Y003403D01*
X010543Y003425D01*
X010565Y003444D01*
X010590Y003459D01*
X010616Y003472D01*
X010644Y003480D01*
X010672Y003485D01*
X010701Y003486D01*
X010730Y003483D01*
X010758Y003476D01*
X010785Y003466D01*
X010811Y003452D01*
X010834Y003435D01*
X010855Y003415D01*
X010873Y003392D01*
X010888Y003367D01*
X010899Y003340D01*
X010907Y003312D01*
X010911Y003283D01*
X010911Y003255D01*
X010907Y003226D01*
X010899Y003198D01*
X010888Y003171D01*
X010873Y003146D01*
X010855Y003123D01*
X010834Y003103D01*
X010811Y003086D01*
X010785Y003072D01*
X010758Y003062D01*
X010730Y003055D01*
X010701Y003052D01*
X010672Y003053D01*
X010644Y003058D01*
X010616Y003066D01*
X010590Y003079D01*
X010565Y003094D01*
X010543Y003113D01*
X010524Y003135D01*
X010507Y003158D01*
X010494Y003184D01*
X010485Y003212D01*
X010479Y003240D01*
X010477Y003269D01*
X010477Y005041D02*
X010479Y005070D01*
X010485Y005098D01*
X010494Y005126D01*
X010507Y005152D01*
X010524Y005175D01*
X010543Y005197D01*
X010565Y005216D01*
X010590Y005231D01*
X010616Y005244D01*
X010644Y005252D01*
X010672Y005257D01*
X010701Y005258D01*
X010730Y005255D01*
X010758Y005248D01*
X010785Y005238D01*
X010811Y005224D01*
X010834Y005207D01*
X010855Y005187D01*
X010873Y005164D01*
X010888Y005139D01*
X010899Y005112D01*
X010907Y005084D01*
X010911Y005055D01*
X010911Y005027D01*
X010907Y004998D01*
X010899Y004970D01*
X010888Y004943D01*
X010873Y004918D01*
X010855Y004895D01*
X010834Y004875D01*
X010811Y004858D01*
X010785Y004844D01*
X010758Y004834D01*
X010730Y004827D01*
X010701Y004824D01*
X010672Y004825D01*
X010644Y004830D01*
X010616Y004838D01*
X010590Y004851D01*
X010565Y004866D01*
X010543Y004885D01*
X010524Y004907D01*
X010507Y004930D01*
X010494Y004956D01*
X010485Y004984D01*
X010479Y005012D01*
X010477Y005041D01*
D11*
X009710Y005533D03*
X009710Y004549D03*
X009710Y003761D03*
X009710Y002777D03*
X006225Y002780D03*
X006225Y003760D03*
X006225Y004550D03*
X006225Y005530D03*
D12*
X005155Y006740D03*
X005155Y001570D03*
D13*
X010655Y001872D03*
X010655Y006439D03*
D14*
X008824Y005139D03*
X007486Y005139D03*
X007486Y004155D03*
X008824Y004155D03*
X008824Y003171D03*
X007486Y003171D03*
D15*
X007965Y003020D02*
X008346Y003020D01*
X008324Y003071D02*
X008401Y002888D01*
X008541Y002747D01*
X008725Y002671D01*
X008924Y002671D01*
X009108Y002747D01*
X009248Y002888D01*
X009324Y003071D01*
X009324Y003270D01*
X009248Y003454D01*
X009108Y003595D01*
X008943Y003663D01*
X009108Y003731D01*
X009248Y003872D01*
X009324Y004056D01*
X009324Y004255D01*
X009248Y004438D01*
X009108Y004579D01*
X008943Y004647D01*
X009108Y004715D01*
X009248Y004856D01*
X009324Y005040D01*
X009324Y005239D01*
X009248Y005423D01*
X009108Y005563D01*
X008924Y005639D01*
X008725Y005639D01*
X008541Y005563D01*
X008401Y005423D01*
X008324Y005239D01*
X008324Y005040D01*
X008401Y004856D01*
X008541Y004715D01*
X008706Y004647D01*
X008541Y004579D01*
X008401Y004438D01*
X008324Y004255D01*
X008324Y004056D01*
X008401Y003872D01*
X008541Y003731D01*
X008706Y003663D01*
X008541Y003595D01*
X008401Y003454D01*
X008324Y003270D01*
X008324Y003071D01*
X008324Y003119D02*
X007986Y003119D01*
X007986Y003071D02*
X007910Y002888D01*
X007769Y002747D01*
X007585Y002671D01*
X007386Y002671D01*
X007203Y002747D01*
X007062Y002888D01*
X006986Y003071D01*
X006986Y003270D01*
X007062Y003454D01*
X007203Y003595D01*
X007367Y003663D01*
X007203Y003731D01*
X007062Y003872D01*
X006986Y004056D01*
X006986Y004255D01*
X007062Y004438D01*
X007203Y004579D01*
X007367Y004647D01*
X007203Y004715D01*
X007062Y004856D01*
X006986Y005040D01*
X006986Y005239D01*
X007062Y005423D01*
X007203Y005563D01*
X007386Y005639D01*
X007585Y005639D01*
X007769Y005563D01*
X007910Y005423D01*
X007986Y005239D01*
X007986Y005040D01*
X007910Y004856D01*
X007769Y004715D01*
X007604Y004647D01*
X007769Y004579D01*
X007910Y004438D01*
X007986Y004255D01*
X007986Y004056D01*
X007910Y003872D01*
X007769Y003731D01*
X007604Y003663D01*
X007769Y003595D01*
X007910Y003454D01*
X007986Y003270D01*
X007986Y003071D01*
X007924Y002922D02*
X008386Y002922D01*
X008465Y002823D02*
X007845Y002823D01*
X007715Y002725D02*
X008595Y002725D01*
X009053Y002725D02*
X009260Y002725D01*
X009260Y002688D02*
X009329Y002522D01*
X009455Y002396D01*
X009621Y002327D01*
X009800Y002327D01*
X009965Y002396D01*
X010092Y002522D01*
X010160Y002688D01*
X010160Y002867D01*
X010092Y003032D01*
X009965Y003159D01*
X009800Y003227D01*
X009621Y003227D01*
X009455Y003159D01*
X009329Y003032D01*
X009260Y002867D01*
X009260Y002688D01*
X009286Y002626D02*
X006648Y002626D01*
X006675Y002691D02*
X006607Y002525D01*
X006480Y002399D01*
X006315Y002330D01*
X009613Y002330D01*
X009422Y002429D02*
X006510Y002429D01*
X006607Y002527D02*
X009327Y002527D01*
X009260Y002823D02*
X009184Y002823D01*
X009262Y002922D02*
X009283Y002922D01*
X009303Y003020D02*
X009324Y003020D01*
X009324Y003119D02*
X009415Y003119D01*
X009324Y003217D02*
X009597Y003217D01*
X009621Y003311D02*
X009800Y003311D01*
X009965Y003380D01*
X010092Y003506D01*
X010160Y003672D01*
X010160Y003851D01*
X010092Y004016D01*
X009965Y004143D01*
X009936Y004155D01*
X009965Y004167D01*
X010092Y004294D01*
X010160Y004459D01*
X010160Y004638D01*
X010092Y004804D01*
X009965Y004930D01*
X009800Y004999D01*
X009621Y004999D01*
X009455Y004930D01*
X009329Y004804D01*
X009260Y004638D01*
X009260Y004459D01*
X009329Y004294D01*
X009455Y004167D01*
X009485Y004155D01*
X009455Y004143D01*
X009329Y004016D01*
X009260Y003851D01*
X009260Y003672D01*
X009329Y003506D01*
X009455Y003380D01*
X009621Y003311D01*
X009610Y003316D02*
X009306Y003316D01*
X009265Y003414D02*
X009421Y003414D01*
X009326Y003513D02*
X009189Y003513D01*
X009285Y003611D02*
X009067Y003611D01*
X009056Y003710D02*
X009260Y003710D01*
X009260Y003809D02*
X009185Y003809D01*
X009263Y003907D02*
X009284Y003907D01*
X009304Y004006D02*
X009324Y004006D01*
X009324Y004104D02*
X009417Y004104D01*
X009420Y004203D02*
X009324Y004203D01*
X009326Y004301D02*
X009305Y004301D01*
X009285Y004400D02*
X009264Y004400D01*
X009260Y004498D02*
X009188Y004498D01*
X009260Y004597D02*
X009064Y004597D01*
X009059Y004695D02*
X009284Y004695D01*
X009325Y004794D02*
X009186Y004794D01*
X009263Y004892D02*
X009418Y004892D01*
X009304Y004991D02*
X009602Y004991D01*
X009610Y005114D02*
X009545Y005135D01*
X009485Y005165D01*
X009430Y005205D01*
X009382Y005253D01*
X009342Y005308D01*
X009312Y005368D01*
X009291Y005432D01*
X009281Y005493D01*
X009670Y005493D01*
X009670Y005573D01*
X009281Y005573D01*
X009291Y005634D01*
X009312Y005698D01*
X009342Y005758D01*
X009382Y005813D01*
X009430Y005861D01*
X009485Y005901D01*
X009545Y005932D01*
X009610Y005952D01*
X009670Y005962D01*
X009670Y005573D01*
X009750Y005573D01*
X009750Y005962D01*
X009811Y005952D01*
X009875Y005932D01*
X009936Y005901D01*
X009990Y005861D01*
X010038Y005813D01*
X010078Y005758D01*
X010109Y005698D01*
X010130Y005634D01*
X010139Y005573D01*
X009750Y005573D01*
X009750Y005493D01*
X009750Y005104D01*
X009811Y005114D01*
X009875Y005135D01*
X009936Y005165D01*
X009990Y005205D01*
X010038Y005253D01*
X010078Y005308D01*
X010109Y005368D01*
X010130Y005432D01*
X010139Y005493D01*
X009750Y005493D01*
X009670Y005493D01*
X009670Y005104D01*
X009610Y005114D01*
X009670Y005188D02*
X009750Y005188D01*
X009750Y005287D02*
X009670Y005287D01*
X009670Y005385D02*
X009750Y005385D01*
X009750Y005484D02*
X009670Y005484D01*
X009670Y005582D02*
X009750Y005582D01*
X009750Y005681D02*
X009670Y005681D01*
X009670Y005779D02*
X009750Y005779D01*
X009750Y005878D02*
X009670Y005878D01*
X009453Y005878D02*
X006478Y005878D01*
X006505Y005858D02*
X006450Y005898D01*
X006390Y005929D01*
X006326Y005949D01*
X006265Y005959D01*
X006265Y005570D01*
X006185Y005570D01*
X006185Y005490D01*
X005796Y005490D01*
X005806Y005429D01*
X005827Y005365D01*
X005857Y005305D01*
X005897Y005250D01*
X005945Y005202D01*
X006000Y005162D01*
X006060Y005132D01*
X006124Y005111D01*
X006185Y005101D01*
X006185Y005490D01*
X006265Y005490D01*
X006265Y005101D01*
X006326Y005111D01*
X006390Y005132D01*
X006450Y005162D01*
X006505Y005202D01*
X006553Y005250D01*
X006593Y005305D01*
X006624Y005365D01*
X006644Y005429D01*
X006654Y005490D01*
X006265Y005490D01*
X006265Y005570D01*
X006654Y005570D01*
X006644Y005631D01*
X006624Y005695D01*
X006593Y005755D01*
X006553Y005810D01*
X006505Y005858D01*
X006576Y005779D02*
X009358Y005779D01*
X009306Y005681D02*
X006628Y005681D01*
X006652Y005582D02*
X007249Y005582D01*
X007123Y005484D02*
X006653Y005484D01*
X006630Y005385D02*
X007046Y005385D01*
X007006Y005287D02*
X006580Y005287D01*
X006486Y005188D02*
X006986Y005188D01*
X006986Y005090D02*
X001200Y005090D01*
X001200Y005188D02*
X005964Y005188D01*
X005870Y005287D02*
X001200Y005287D01*
X001200Y005385D02*
X005820Y005385D01*
X005797Y005484D02*
X001200Y005484D01*
X001200Y005582D02*
X005798Y005582D01*
X005796Y005570D02*
X005806Y005631D01*
X005827Y005695D01*
X005857Y005755D01*
X005897Y005810D01*
X005945Y005858D01*
X006000Y005898D01*
X006060Y005929D01*
X006124Y005949D01*
X006185Y005959D01*
X006185Y005570D01*
X005796Y005570D01*
X005822Y005681D02*
X001200Y005681D01*
X001200Y005779D02*
X005875Y005779D01*
X005972Y005878D02*
X001200Y005878D01*
X001200Y005976D02*
X004843Y005976D01*
X004991Y005915D02*
X004688Y006041D01*
X004456Y006273D01*
X004330Y006576D01*
X004330Y006904D01*
X004456Y007207D01*
X004688Y007439D01*
X004798Y007485D01*
X001200Y007485D01*
X001200Y000825D01*
X004798Y000825D01*
X004688Y000871D01*
X004456Y001103D01*
X004330Y001406D01*
X004330Y001734D01*
X004456Y002037D01*
X004688Y002269D01*
X004991Y002395D01*
X005319Y002395D01*
X005622Y002269D01*
X005854Y002037D01*
X005980Y001734D01*
X005980Y001406D01*
X005854Y001103D01*
X005622Y000871D01*
X005512Y000825D01*
X011735Y000825D01*
X011735Y007485D01*
X005512Y007485D01*
X005622Y007439D01*
X005854Y007207D01*
X005980Y006904D01*
X005980Y006576D01*
X005854Y006273D01*
X005622Y006041D01*
X005319Y005915D01*
X004991Y005915D01*
X004654Y006075D02*
X001200Y006075D01*
X001200Y006174D02*
X004555Y006174D01*
X004456Y006272D02*
X001200Y006272D01*
X001200Y006371D02*
X004415Y006371D01*
X004374Y006469D02*
X001200Y006469D01*
X001200Y006568D02*
X004334Y006568D01*
X004330Y006666D02*
X001200Y006666D01*
X001200Y006765D02*
X004330Y006765D01*
X004330Y006863D02*
X001200Y006863D01*
X001200Y006962D02*
X004354Y006962D01*
X004395Y007060D02*
X001200Y007060D01*
X001200Y007159D02*
X004436Y007159D01*
X004506Y007258D02*
X001200Y007258D01*
X001200Y007356D02*
X004604Y007356D01*
X004724Y007455D02*
X001200Y007455D01*
X005467Y005976D02*
X009981Y005976D01*
X009974Y005984D02*
X010200Y005758D01*
X010495Y005636D01*
X010815Y005636D01*
X011110Y005758D01*
X011336Y005984D01*
X011458Y006279D01*
X011458Y006598D01*
X011336Y006893D01*
X011110Y007119D01*
X010815Y007242D01*
X010495Y007242D01*
X010200Y007119D01*
X009974Y006893D01*
X009852Y006598D01*
X009852Y006279D01*
X009974Y005984D01*
X009967Y005878D02*
X010080Y005878D01*
X010063Y005779D02*
X010179Y005779D01*
X010114Y005681D02*
X010386Y005681D01*
X010138Y005582D02*
X011735Y005582D01*
X011735Y005681D02*
X010924Y005681D01*
X011132Y005779D02*
X011735Y005779D01*
X011735Y005878D02*
X011230Y005878D01*
X011329Y005976D02*
X011735Y005976D01*
X011735Y006075D02*
X011374Y006075D01*
X011415Y006174D02*
X011735Y006174D01*
X011735Y006272D02*
X011455Y006272D01*
X011458Y006371D02*
X011735Y006371D01*
X011735Y006469D02*
X011458Y006469D01*
X011458Y006568D02*
X011735Y006568D01*
X011735Y006666D02*
X011430Y006666D01*
X011389Y006765D02*
X011735Y006765D01*
X011735Y006863D02*
X011348Y006863D01*
X011267Y006962D02*
X011735Y006962D01*
X011735Y007060D02*
X011169Y007060D01*
X011014Y007159D02*
X011735Y007159D01*
X011735Y007258D02*
X005804Y007258D01*
X005875Y007159D02*
X010296Y007159D01*
X010141Y007060D02*
X005915Y007060D01*
X005956Y006962D02*
X010043Y006962D01*
X009962Y006863D02*
X005980Y006863D01*
X005980Y006765D02*
X009921Y006765D01*
X009880Y006666D02*
X005980Y006666D01*
X005977Y006568D02*
X009852Y006568D01*
X009852Y006469D02*
X005936Y006469D01*
X005895Y006371D02*
X009852Y006371D01*
X009855Y006272D02*
X005854Y006272D01*
X005755Y006174D02*
X009896Y006174D01*
X009936Y006075D02*
X005657Y006075D01*
X006185Y005878D02*
X006265Y005878D01*
X006265Y005779D02*
X006185Y005779D01*
X006185Y005681D02*
X006265Y005681D01*
X006265Y005582D02*
X006185Y005582D01*
X006185Y005484D02*
X006265Y005484D01*
X006265Y005385D02*
X006185Y005385D01*
X006185Y005287D02*
X006265Y005287D01*
X006265Y005188D02*
X006185Y005188D01*
X006136Y005000D02*
X005970Y004932D01*
X005844Y004805D01*
X005775Y004640D01*
X005775Y004461D01*
X005844Y004295D01*
X005970Y004169D01*
X006003Y004155D01*
X005970Y004142D01*
X005844Y004015D01*
X005775Y003850D01*
X005775Y003671D01*
X005844Y003505D01*
X005970Y003379D01*
X006136Y003310D01*
X006315Y003310D01*
X006480Y003379D01*
X006607Y003505D01*
X006675Y003671D01*
X006675Y003850D01*
X006607Y004015D01*
X006480Y004142D01*
X006447Y004155D01*
X006480Y004169D01*
X006607Y004295D01*
X006675Y004461D01*
X006675Y004640D01*
X006607Y004805D01*
X006480Y004932D01*
X006315Y005000D01*
X006136Y005000D01*
X006114Y004991D02*
X001200Y004991D01*
X001200Y004892D02*
X005931Y004892D01*
X005839Y004794D02*
X001200Y004794D01*
X001200Y004695D02*
X005798Y004695D01*
X005775Y004597D02*
X001200Y004597D01*
X001200Y004498D02*
X005775Y004498D01*
X005800Y004400D02*
X001200Y004400D01*
X001200Y004301D02*
X005841Y004301D01*
X005936Y004203D02*
X001200Y004203D01*
X001200Y004104D02*
X005933Y004104D01*
X005840Y004006D02*
X001200Y004006D01*
X001200Y003907D02*
X005799Y003907D01*
X005775Y003809D02*
X001200Y003809D01*
X001200Y003710D02*
X005775Y003710D01*
X005800Y003611D02*
X001200Y003611D01*
X001200Y003513D02*
X005840Y003513D01*
X005934Y003414D02*
X001200Y003414D01*
X001200Y003316D02*
X006122Y003316D01*
X006136Y003230D02*
X005970Y003162D01*
X005844Y003035D01*
X005775Y002870D01*
X005775Y002691D01*
X005844Y002525D01*
X005970Y002399D01*
X006136Y002330D01*
X006315Y002330D01*
X006135Y002330D02*
X005475Y002330D01*
X005660Y002232D02*
X009935Y002232D01*
X009974Y002327D02*
X009852Y002031D01*
X009852Y001712D01*
X009974Y001417D01*
X010200Y001191D01*
X010495Y001069D01*
X010815Y001069D01*
X011110Y001191D01*
X011336Y001417D01*
X011458Y001712D01*
X011458Y002031D01*
X011336Y002327D01*
X011110Y002552D01*
X010815Y002675D01*
X010495Y002675D01*
X010200Y002552D01*
X009974Y002327D01*
X009978Y002330D02*
X009807Y002330D01*
X009998Y002429D02*
X010077Y002429D01*
X010094Y002527D02*
X010175Y002527D01*
X010135Y002626D02*
X010378Y002626D01*
X010160Y002725D02*
X011735Y002725D01*
X011735Y002823D02*
X010160Y002823D01*
X010137Y002922D02*
X010524Y002922D01*
X010476Y002942D02*
X010367Y003050D01*
X010308Y003192D01*
X010308Y003346D01*
X010367Y003488D01*
X010476Y003597D01*
X010618Y003656D01*
X010771Y003656D01*
X010913Y003597D01*
X011022Y003488D01*
X011081Y003346D01*
X011081Y003192D01*
X011022Y003050D01*
X010913Y002942D01*
X010771Y002883D01*
X010618Y002883D01*
X010476Y002942D01*
X010397Y003020D02*
X010097Y003020D01*
X010005Y003119D02*
X010338Y003119D01*
X010308Y003217D02*
X009824Y003217D01*
X009810Y003316D02*
X010308Y003316D01*
X010336Y003414D02*
X010000Y003414D01*
X010094Y003513D02*
X010391Y003513D01*
X010511Y003611D02*
X010135Y003611D01*
X010160Y003710D02*
X011735Y003710D01*
X011735Y003809D02*
X010160Y003809D01*
X010137Y003907D02*
X011735Y003907D01*
X011735Y004006D02*
X010096Y004006D01*
X010004Y004104D02*
X011735Y004104D01*
X011735Y004203D02*
X010000Y004203D01*
X010095Y004301D02*
X011735Y004301D01*
X011735Y004400D02*
X010136Y004400D01*
X010160Y004498D02*
X011735Y004498D01*
X011735Y004597D02*
X010160Y004597D01*
X010137Y004695D02*
X010519Y004695D01*
X010476Y004713D02*
X010367Y004822D01*
X010308Y004964D01*
X010308Y005118D01*
X010367Y005260D01*
X010476Y005369D01*
X010618Y005427D01*
X010771Y005427D01*
X010913Y005369D01*
X011022Y005260D01*
X011081Y005118D01*
X011081Y004964D01*
X011022Y004822D01*
X010913Y004713D01*
X010771Y004654D01*
X010618Y004654D01*
X010476Y004713D01*
X010395Y004794D02*
X010096Y004794D01*
X010003Y004892D02*
X010338Y004892D01*
X010308Y004991D02*
X009818Y004991D01*
X009967Y005188D02*
X010337Y005188D01*
X010308Y005090D02*
X009324Y005090D01*
X009324Y005188D02*
X009453Y005188D01*
X009358Y005287D02*
X009305Y005287D01*
X009306Y005385D02*
X009264Y005385D01*
X009283Y005484D02*
X009187Y005484D01*
X009283Y005582D02*
X009062Y005582D01*
X008587Y005582D02*
X007723Y005582D01*
X007849Y005484D02*
X008462Y005484D01*
X008385Y005385D02*
X007925Y005385D01*
X007966Y005287D02*
X008344Y005287D01*
X008324Y005188D02*
X007986Y005188D01*
X007986Y005090D02*
X008324Y005090D01*
X008345Y004991D02*
X007966Y004991D01*
X007925Y004892D02*
X008385Y004892D01*
X008463Y004794D02*
X007847Y004794D01*
X007721Y004695D02*
X008590Y004695D01*
X008584Y004597D02*
X007726Y004597D01*
X007850Y004498D02*
X008461Y004498D01*
X008385Y004400D02*
X007926Y004400D01*
X007966Y004301D02*
X008344Y004301D01*
X008324Y004203D02*
X007986Y004203D01*
X007986Y004104D02*
X008324Y004104D01*
X008345Y004006D02*
X007965Y004006D01*
X007924Y003907D02*
X008386Y003907D01*
X008464Y003809D02*
X007846Y003809D01*
X007718Y003710D02*
X008592Y003710D01*
X008582Y003611D02*
X007729Y003611D01*
X007851Y003513D02*
X008459Y003513D01*
X008384Y003414D02*
X007926Y003414D01*
X007967Y003316D02*
X008343Y003316D01*
X008324Y003217D02*
X007986Y003217D01*
X007243Y003611D02*
X006651Y003611D01*
X006675Y003710D02*
X007254Y003710D01*
X007125Y003809D02*
X006675Y003809D01*
X006651Y003907D02*
X007047Y003907D01*
X007007Y004006D02*
X006610Y004006D01*
X006517Y004104D02*
X006986Y004104D01*
X006986Y004203D02*
X006514Y004203D01*
X006609Y004301D02*
X007005Y004301D01*
X007046Y004400D02*
X006650Y004400D01*
X006675Y004498D02*
X007122Y004498D01*
X007246Y004597D02*
X006675Y004597D01*
X006652Y004695D02*
X007251Y004695D01*
X007124Y004794D02*
X006611Y004794D01*
X006519Y004892D02*
X007047Y004892D01*
X007006Y004991D02*
X006336Y004991D01*
X006610Y003513D02*
X007121Y003513D01*
X007046Y003414D02*
X006516Y003414D01*
X006328Y003316D02*
X007005Y003316D01*
X006986Y003217D02*
X006346Y003217D01*
X006315Y003230D02*
X006136Y003230D01*
X006105Y003217D02*
X001200Y003217D01*
X001200Y003119D02*
X005927Y003119D01*
X005837Y003020D02*
X001200Y003020D01*
X001200Y002922D02*
X005797Y002922D01*
X005775Y002823D02*
X001200Y002823D01*
X001200Y002725D02*
X005775Y002725D01*
X005802Y002626D02*
X001200Y002626D01*
X001200Y002527D02*
X005843Y002527D01*
X005940Y002429D02*
X001200Y002429D01*
X001200Y002330D02*
X004835Y002330D01*
X004650Y002232D02*
X001200Y002232D01*
X001200Y002133D02*
X004552Y002133D01*
X004455Y002035D02*
X001200Y002035D01*
X001200Y001936D02*
X004414Y001936D01*
X004373Y001838D02*
X001200Y001838D01*
X001200Y001739D02*
X004332Y001739D01*
X004330Y001641D02*
X001200Y001641D01*
X001200Y001542D02*
X004330Y001542D01*
X004330Y001443D02*
X001200Y001443D01*
X001200Y001345D02*
X004355Y001345D01*
X004396Y001246D02*
X001200Y001246D01*
X001200Y001148D02*
X004437Y001148D01*
X004509Y001049D02*
X001200Y001049D01*
X001200Y000951D02*
X004608Y000951D01*
X004732Y000852D02*
X001200Y000852D01*
X005578Y000852D02*
X011735Y000852D01*
X011735Y000951D02*
X005702Y000951D01*
X005801Y001049D02*
X011735Y001049D01*
X011735Y001148D02*
X011006Y001148D01*
X011166Y001246D02*
X011735Y001246D01*
X011735Y001345D02*
X011264Y001345D01*
X011347Y001443D02*
X011735Y001443D01*
X011735Y001542D02*
X011388Y001542D01*
X011429Y001641D02*
X011735Y001641D01*
X011735Y001739D02*
X011458Y001739D01*
X011458Y001838D02*
X011735Y001838D01*
X011735Y001936D02*
X011458Y001936D01*
X011457Y002035D02*
X011735Y002035D01*
X011735Y002133D02*
X011416Y002133D01*
X011375Y002232D02*
X011735Y002232D01*
X011735Y002330D02*
X011332Y002330D01*
X011234Y002429D02*
X011735Y002429D01*
X011735Y002527D02*
X011135Y002527D01*
X010932Y002626D02*
X011735Y002626D01*
X011735Y002922D02*
X010865Y002922D01*
X010992Y003020D02*
X011735Y003020D01*
X011735Y003119D02*
X011050Y003119D01*
X011081Y003217D02*
X011735Y003217D01*
X011735Y003316D02*
X011081Y003316D01*
X011053Y003414D02*
X011735Y003414D01*
X011735Y003513D02*
X010997Y003513D01*
X010878Y003611D02*
X011735Y003611D01*
X011735Y004695D02*
X010870Y004695D01*
X010994Y004794D02*
X011735Y004794D01*
X011735Y004892D02*
X011051Y004892D01*
X011081Y004991D02*
X011735Y004991D01*
X011735Y005090D02*
X011081Y005090D01*
X011052Y005188D02*
X011735Y005188D01*
X011735Y005287D02*
X010995Y005287D01*
X010873Y005385D02*
X011735Y005385D01*
X011735Y005484D02*
X010138Y005484D01*
X010114Y005385D02*
X010516Y005385D01*
X010394Y005287D02*
X010063Y005287D01*
X011735Y007356D02*
X005706Y007356D01*
X005586Y007455D02*
X011735Y007455D01*
X006607Y003035D02*
X006480Y003162D01*
X006315Y003230D01*
X006523Y003119D02*
X006986Y003119D01*
X007007Y003020D02*
X006613Y003020D01*
X006607Y003035D02*
X006675Y002870D01*
X006675Y002691D01*
X006675Y002725D02*
X007257Y002725D01*
X007126Y002823D02*
X006675Y002823D01*
X006654Y002922D02*
X007048Y002922D01*
X005759Y002133D02*
X009894Y002133D01*
X009853Y002035D02*
X005856Y002035D01*
X005896Y001936D02*
X009852Y001936D01*
X009852Y001838D02*
X005937Y001838D01*
X005978Y001739D02*
X009852Y001739D01*
X009882Y001641D02*
X005980Y001641D01*
X005980Y001542D02*
X009922Y001542D01*
X009963Y001443D02*
X005980Y001443D01*
X005955Y001345D02*
X010046Y001345D01*
X010145Y001246D02*
X005914Y001246D01*
X005873Y001148D02*
X010304Y001148D01*
D16*
X008155Y006905D03*
M02*
