%
M48
M72
T01C0.0197
T02C0.0315
T03C0.0360
T04C0.0433
T05C0.0866
T06C0.0910
%
T01
X8155Y6905
T02
X7486Y3171
X8824Y3171
X8824Y4155
X7486Y4155
X7486Y5139
X8824Y5139
T03
X6225Y2780
X6225Y3760
X6225Y4550
X6225Y5530
X9710Y5533
X9710Y4549
X9710Y3761
X9710Y2777
T04
X10694Y3269
X10694Y5041
T05
X10655Y6439
X10655Y1872
T06
X5155Y1570
X5155Y6740
M30
