G75*
G70*
%OFA0B0*%
%FSLAX24Y24*%
%IPPOS*%
%LPD*%
%AMOC8*
5,1,8,0,0,1.08239X$1,22.5*
%
%ADD10C,0.0000*%
%ADD11C,0.0640*%
%ADD12C,0.1390*%
%ADD13C,0.1346*%
%ADD14C,0.0513*%
%ADD15C,0.0740*%
%ADD16R,0.0513X0.0474*%
D10*
X001030Y000655D02*
X001030Y007655D01*
X011905Y007655D01*
X011905Y000655D01*
X001030Y000655D01*
X010477Y003269D02*
X010479Y003298D01*
X010485Y003326D01*
X010494Y003354D01*
X010507Y003380D01*
X010524Y003403D01*
X010543Y003425D01*
X010565Y003444D01*
X010590Y003459D01*
X010616Y003472D01*
X010644Y003480D01*
X010672Y003485D01*
X010701Y003486D01*
X010730Y003483D01*
X010758Y003476D01*
X010785Y003466D01*
X010811Y003452D01*
X010834Y003435D01*
X010855Y003415D01*
X010873Y003392D01*
X010888Y003367D01*
X010899Y003340D01*
X010907Y003312D01*
X010911Y003283D01*
X010911Y003255D01*
X010907Y003226D01*
X010899Y003198D01*
X010888Y003171D01*
X010873Y003146D01*
X010855Y003123D01*
X010834Y003103D01*
X010811Y003086D01*
X010785Y003072D01*
X010758Y003062D01*
X010730Y003055D01*
X010701Y003052D01*
X010672Y003053D01*
X010644Y003058D01*
X010616Y003066D01*
X010590Y003079D01*
X010565Y003094D01*
X010543Y003113D01*
X010524Y003135D01*
X010507Y003158D01*
X010494Y003184D01*
X010485Y003212D01*
X010479Y003240D01*
X010477Y003269D01*
X010477Y005041D02*
X010479Y005070D01*
X010485Y005098D01*
X010494Y005126D01*
X010507Y005152D01*
X010524Y005175D01*
X010543Y005197D01*
X010565Y005216D01*
X010590Y005231D01*
X010616Y005244D01*
X010644Y005252D01*
X010672Y005257D01*
X010701Y005258D01*
X010730Y005255D01*
X010758Y005248D01*
X010785Y005238D01*
X010811Y005224D01*
X010834Y005207D01*
X010855Y005187D01*
X010873Y005164D01*
X010888Y005139D01*
X010899Y005112D01*
X010907Y005084D01*
X010911Y005055D01*
X010911Y005027D01*
X010907Y004998D01*
X010899Y004970D01*
X010888Y004943D01*
X010873Y004918D01*
X010855Y004895D01*
X010834Y004875D01*
X010811Y004858D01*
X010785Y004844D01*
X010758Y004834D01*
X010730Y004827D01*
X010701Y004824D01*
X010672Y004825D01*
X010644Y004830D01*
X010616Y004838D01*
X010590Y004851D01*
X010565Y004866D01*
X010543Y004885D01*
X010524Y004907D01*
X010507Y004930D01*
X010494Y004956D01*
X010485Y004984D01*
X010479Y005012D01*
X010477Y005041D01*
D11*
X009710Y005533D03*
X009710Y004549D03*
X009710Y003761D03*
X009710Y002777D03*
X006225Y002780D03*
X006225Y003760D03*
X006225Y004550D03*
X006225Y005530D03*
D12*
X005155Y006740D03*
X005155Y001570D03*
D13*
X010655Y001872D03*
X010655Y006439D03*
D14*
X010694Y005041D03*
X010694Y003269D03*
D15*
X008824Y003171D03*
X007486Y003171D03*
X007486Y004155D03*
X008824Y004155D03*
X008824Y005139D03*
X007486Y005139D03*
D16*
X007655Y006320D03*
X006655Y006320D03*
X006655Y006990D03*
X007655Y006990D03*
X008655Y006990D03*
X009655Y006990D03*
X009655Y006320D03*
X008655Y006320D03*
M02*
